<svg xmlns="http://www.w3.org/2000/svg" height="30" viewBox="0 96 960 960" width="30">
<path d="M640 636q26 0 43-17t17-43q0-26-17-43t-43-17q-26 0-43 17t-17 43q0 26 17 43t43 17ZM200 752v104-560 456Zm32 132q-26 0-43-17t-17-43V328q0-26 17-43t43-17h496q26 0 43 17t17 43v123h-28V328q0-14-9-23t-23-9H232q-14 0-23 9t-9 23v496q0 14 9 23t23 9h496q14 0 23-9t9-23V701h28v123q0 26-17 43t-43 17H232Zm320-160q-26 0-43-17t-17-43V488q0-26 17-43t43-17h216q26 0 43 17t17 43v176q0 26-17 43t-43 17H552Zm216-28q14 0 23-9t9-23V488q0-14-9-23t-23-9H552q-14 0-23 9t-9 23v176q0 14 9 23t23 9h216Z" fill="#dedede"/></svg>